<svg width="901" height="203" xmlns="http://www.w3.org/2000/svg">
  <defs>
    <clipPath clipPathUnits="userSpaceOnUse" id="a">
      <path d="M0 676.447h1630.797V0H0v676.447z"/>
    </clipPath>
  </defs>
  <g class="layer">
    <g transform="matrix(1.33333 0 0 -1.33333 0 901.93)" clip-path="url(#a)">
      <path fill="#ffffff" d="M147.139 641.513h20.186v-84.192c0-20.183-5.887-33.472-26.915-33.472-9.082 0-18.075 2.98-26.15 9.71l3.972 14.816c2.05-2.284 8.535-7.97 17.71-8.083 6.392-.08 11.197 4.416 11.197 11.482v89.74zm76.787-14.35c-11.606 0-20.69-7.4-23.55-19.175h47.604c-2.187 10.933-10.43 19.175-24.054 19.175m42.558-32.297h-65.94c0-13.624 9.588-23.883 27.419-23.883 11.755 0 22.65 4.732 28.45 10.24l4.688-14.447c-8.915-8.074-21.7-12.28-35.662-12.28-25.063 0-45.416 18.505-45.416 43.401 0 25.231 19.512 45.753 43.903 45.753 27.08 0 43.062-18 43.062-42.894 0-1.683-.168-4.037-.504-5.89m44.761-8.24c0-10.6 5.887-14.299 12.446-14.299 4.71 0 9.42.84 14.13 2.86v-15.81c-5.72-2.524-13.288-3.533-20.185-3.533-14.97 0-26.41 7.233-26.41 28.427v40.2h-16.652v16.655h16.34l5.273 19.682h15.058v-19.682h26.407v-16.655h-26.407v-37.846zm61.24-29.607h-20.017v119.43h20.017v-119.43zm180.514 47.437c0 12.111-5.887 19.681-15.98 19.681-7.568 0-19.848-5.216-25.568-16.486V557.02h-20.016v84.107h20.016v-12.615c7.402 9.587 19.008 14.8 31.456 14.8 17.326 0 30.11-12.109 30.11-33.809V557.02h-20.018v47.437zm102.46-21.026v31.117c-4.878 6.395-12.447 10.432-20.69 10.432-14.13 0-25.737-11.945-25.737-25.905 0-14.466 11.608-26.073 25.737-26.073 8.243 0 15.812 4.037 20.69 10.43m0-26.41v10.932c-6.056-8.242-16.317-13.457-26.745-13.457-24.56 0-41.044 20.018-41.044 44.578 0 24.39 16.484 44.577 41.044 44.577 10.428 0 20.689-5.383 26.745-13.627v46.425h20.017V557.02l-20.017.001zm-222.747 70.142c-11.606 0-20.69-7.4-23.55-19.175h47.604c-2.187 10.933-10.43 19.175-24.054 19.175m42.558-32.297h-65.94c0-13.624 9.588-23.883 27.419-23.883 11.755 0 22.65 4.732 28.452 10.24l4.686-14.447c-8.915-8.074-21.7-12.28-35.661-12.28-25.063 0-45.417 18.505-45.417 43.401 0 25.231 19.512 45.753 43.903 45.753 27.08 0 43.063-18 43.063-42.894 0-1.683-.17-4.037-.505-5.89"/>
      <path fill="#0ad194" d="M120.952 676.132L0 641.126l50.471-50.47 37.888-36.16 32.593 121.636z"/>
    </g>
  </g>
</svg>