<svg width="20" height="20" viewBox="0 0 20 20" fill="none" xmlns="http://www.w3.org/2000/svg">
<path fill-rule="evenodd" clip-rule="evenodd" d="M4.41655 4.14038C5.77325 3.23385 7.36831 2.75 9 2.75C9.41422 2.75 9.75 3.08579 9.75 3.5V10.25H16.5C16.9142 10.25 17.25 10.5858 17.25 11C17.25 12.6317 16.7662 14.2267 15.8596 15.5835C14.9531 16.9402 13.6646 17.9976 12.1571 18.622C10.6497 19.2464 8.99085 19.4098 7.39051 19.0915C5.79017 18.7732 4.32016 17.9874 3.16637 16.8336C2.01259 15.6798 1.22685 14.2098 0.908525 12.6095C0.590197 11.0092 0.753575 9.35035 1.378 7.84286C2.00242 6.33537 3.05984 5.0469 4.41655 4.14038Z" fill="#C8CED2"/>
<path fill-rule="evenodd" clip-rule="evenodd" d="M10.7197 0.71967C10.8603 0.579018 11.0511 0.5 11.25 0.5C12.3334 0.5 13.4062 0.713392 14.4071 1.12799C15.4081 1.54259 16.3175 2.15029 17.0836 2.91637C17.8497 3.68245 18.4574 4.59193 18.872 5.59286C19.2866 6.5938 19.5 7.66659 19.5 8.75C19.5 9.16421 19.1642 9.5 18.75 9.5H11.25C10.8358 9.5 10.5 9.16421 10.5 8.75L10.5 1.25C10.5 1.05109 10.579 0.860322 10.7197 0.71967Z" fill="#C8CED2"/>
</svg>
