<svg width="29" height="22" viewBox="0 0 29 22" fill="none" xmlns="http://www.w3.org/2000/svg">
<path d="M27.178 4.65224V3.19191L26.2829 4.34578L17.8936 15.1607C17.8936 15.1608 17.8935 15.1608 17.8935 15.1609C17.8331 15.2385 17.7595 15.3001 17.6784 15.3432C17.5974 15.3863 17.5101 15.4104 17.422 15.415C17.3339 15.4197 17.2452 15.4049 17.1614 15.3709C17.0775 15.3369 16.9993 15.2839 16.9326 15.2137L10.9258 8.87962L10.5015 8.4322L10.1514 8.9398L1.66799 21.24C1.55893 21.3829 1.40738 21.4704 1.24806 21.4937C1.08683 21.5172 0.920204 21.4748 0.78226 21.369C0.643328 21.2623 0.542992 21.0979 0.510849 20.9062C0.479125 20.7169 0.517869 20.5241 0.614847 20.3682L9.89719 6.90965L9.89743 6.90929C9.95579 6.82452 10.0294 6.75622 10.1118 6.70749L9.85741 6.27707L10.1118 6.70749C10.1942 6.65882 10.284 6.6304 10.3751 6.6228C10.4662 6.61519 10.5583 6.6284 10.6454 6.66225C10.7326 6.69611 10.8139 6.75032 10.8829 6.82294C10.883 6.82299 10.883 6.82304 10.8831 6.8231L16.941 13.2136L17.3418 13.6363L17.6989 13.1761L25.7843 2.75505L26.41 1.94855H25.3892H18.5508C18.3843 1.94855 18.2189 1.87905 18.0927 1.74591C17.9655 1.61187 17.8898 1.42467 17.8898 1.22427C17.8898 1.02388 17.9655 0.836678 18.0927 0.702639C18.2189 0.569499 18.3843 0.5 18.5508 0.5H27.839C28.0055 0.5 28.1709 0.569499 28.2971 0.702639C28.4243 0.836678 28.5 1.02388 28.5 1.22427V11.0185C28.5 11.2189 28.4243 11.4061 28.2971 11.5401C28.1709 11.6732 28.0055 11.7427 27.839 11.7427C27.6725 11.7427 27.5071 11.6732 27.3808 11.5401C27.2537 11.4061 27.178 11.2189 27.178 11.0185V4.65224Z" fill="#2CAC8D" stroke="#2CAC8D"/>
</svg>
