<svg width="22" height="19" viewBox="0 0 22 19" fill="none" xmlns="http://www.w3.org/2000/svg">
<path d="M11.215 11.8216C10.8008 11.8216 10.465 11.4859 10.465 11.0716C10.465 10.6574 10.8008 10.3216 11.215 10.3216C11.6292 10.3216 11.965 10.6574 11.965 11.0716C11.965 11.4859 11.6292 11.8216 11.215 11.8216Z" fill="#C8CED2"/>
<path fill-rule="evenodd" clip-rule="evenodd" d="M7.46484 0.571533C7.05063 0.571533 6.71484 0.90732 6.71484 1.32153V3.57153H1.88155C1.2372 3.57153 0.714861 4.09389 0.714883 4.73824L0.715006 8.46618L8.96501 10.3035V9.57164C8.96501 9.15743 9.30079 8.82164 9.71501 8.82164H12.715C13.1292 8.82164 13.465 9.15743 13.465 9.57164V10.3035L21.7148 8.46622V4.7382C21.7148 4.09387 21.1925 3.57153 20.5482 3.57153H15.7148V1.32153C15.7148 0.90732 15.3791 0.571533 14.9648 0.571533H7.46484ZM8.21484 2.07153V3.57153H14.2148V2.07153H8.21484Z" fill="#C8CED2"/>
<path d="M0.714844 9.57164V17.4049C0.714844 18.0492 1.23718 18.5715 1.88151 18.5715H20.5482C21.1925 18.5715 21.7148 18.0492 21.7148 17.4049V9.58733C21.7076 9.93813 21.4575 10.238 21.1121 10.3071L13.6121 11.8071C13.5627 11.817 13.5135 11.8217 13.465 11.8218V12.5716C13.465 12.9859 13.1292 13.3216 12.715 13.3216H9.71501C9.30079 13.3216 8.96501 12.9859 8.96501 12.5716V11.8218C8.9165 11.8217 8.86729 11.817 8.81792 11.8071L1.31792 10.3071C0.967351 10.237 0.714844 9.92915 0.714844 9.57164Z" fill="#C8CED2"/>
</svg>