<svg width="24" height="24" viewBox="0 0 24 24" fill="none" xmlns="http://www.w3.org/2000/svg">
<path class="svg" fill-rule="evenodd" clip-rule="evenodd" d="M10.5864 0.600098C10.2742 0.600098 10.0211 0.853186 10.0211 1.16539V3.29731C9.1402 3.51504 8.29686 3.8635 7.51919 4.33107L6.01679 2.82478C5.91082 2.71854 5.76697 2.65879 5.61692 2.65869C5.46687 2.6586 5.32293 2.71816 5.21683 2.82426L2.82377 5.21732C2.71767 5.32342 2.65811 5.46735 2.6582 5.6174C2.6583 5.76745 2.71805 5.91131 2.82429 6.01727L4.33058 7.51968C3.86301 8.29735 3.51455 9.14069 3.29682 10.0216H1.1649C0.852698 10.0216 0.599609 10.2747 0.599609 10.5869V13.4133C0.599609 13.7255 0.852698 13.9786 1.1649 13.9786H3.29682C3.51455 14.8595 3.86301 15.7028 4.33058 16.4805L2.82429 17.9829C2.71805 18.0889 2.6583 18.2327 2.6582 18.3828C2.65811 18.5328 2.71767 18.6768 2.82377 18.7829L5.21683 21.1759C5.32293 21.282 5.46687 21.3416 5.61692 21.3415C5.76697 21.3414 5.91082 21.2817 6.01679 21.1754L7.51919 19.6691C8.29686 20.1367 9.1402 20.4852 10.0211 20.7029V22.8348C10.0211 23.147 10.2742 23.4001 10.5864 23.4001H13.4128C13.725 23.4001 13.9781 23.147 13.9781 22.8348V20.7029C14.859 20.4852 15.7024 20.1367 16.48 19.6691L17.9824 21.1754C18.0884 21.2817 18.2323 21.3414 18.3823 21.3415C18.5324 21.3416 18.6763 21.282 18.7824 21.1759L21.1754 18.7829C21.2815 18.6768 21.3411 18.5328 21.341 18.3828C21.3409 18.2327 21.2812 18.0889 21.1749 17.9829L19.6686 16.4805C20.1362 15.7028 20.4847 14.8595 20.7024 13.9786H22.8343C23.1465 13.9786 23.3996 13.7255 23.3996 13.4133V10.5869C23.3996 10.2747 23.1465 10.0216 22.8343 10.0216H20.7024C20.4847 9.14069 20.1362 8.29735 19.6686 7.51968L21.1749 6.01727C21.2812 5.91131 21.3409 5.76745 21.341 5.6174C21.3411 5.46735 21.2815 5.32342 21.1754 5.21732L18.7824 2.82426C18.6763 2.71816 18.5324 2.6586 18.3823 2.65869C18.2323 2.65879 18.0884 2.71854 17.9824 2.82478L16.48 4.33107C15.7024 3.8635 14.859 3.51504 13.9781 3.29731V1.16539C13.9781 0.853186 13.725 0.600098 13.4128 0.600098H10.5864ZM8.04258 12.0001C8.04258 9.81469 9.8142 8.04307 11.9996 8.04307C14.185 8.04307 15.9566 9.81469 15.9566 12.0001C15.9566 14.1855 14.185 15.9571 11.9996 15.9571C9.8142 15.9571 8.04258 14.1855 8.04258 12.0001Z" fill="#C8CED2"/>
</svg>